<svg width="35" height="35" viewBox="0 0 96.55 96.55" style="enable-background:new 0 0 35 35" xml:space="preserve" xmlns="http://www.w3.org/2000/svg">
    <path d="M48.232 35.603c-.014.006-.03.01-.043.016-.11.045-.302.367-.221.28.09-.097.177-.197.264-.296zM39.183 65.595h-8.011V2a2 2 0 0 0-2-2h-16.13a2 2 0 0 0-2 2v63.595h-8.01c-.771 0-1.472.443-1.804 1.138a1.999 1.999 0 0 0 .244 2.117l18.076 26.954c.38.474.953.746 1.559.746s1.178-.272 1.558-.746L40.741 68.85a2 2 0 0 0 .245-2.117 2 2 0 0 0-1.803-1.138z"/>
    <path d="M64.074 2.725c-16.77 0-30.344 13.572-30.344 30.344 0 16.772 13.571 30.345 30.344 30.345 16.772 0 30.344-13.572 30.344-30.345 0-16.771-13.571-30.344-30.344-30.344Zm1.495 31.602-8.271 9.834a1.954 1.954 0 0 1-2.99-2.515l7.813-9.289V10.282a1.954 1.954 0 0 1 3.907 0V33.07c0 .46-.163.906-.459 1.258z"/>
</svg>
