<?xml version="1.0" encoding="UTF-8" standalone="no"?>
<svg
   version="1.1"
   id="Capa_1"
   x="0px"
   y="0px"
   width="35px"
   height="35px"
   viewBox="0 0 381.404 381.404"
   style="enable-background:new 0 0 35 35;"
   xml:space="preserve"
   sodipodi:docname="sort_date.svg"
   inkscape:version="1.4-beta3 (01c8a1c, 2024-08-28, custom)"
   xmlns:inkscape="http://www.inkscape.org/namespaces/inkscape"
   xmlns:sodipodi="http://sodipodi.sourceforge.net/DTD/sodipodi-0.dtd"
   xmlns="http://www.w3.org/2000/svg"
   xmlns:svg="http://www.w3.org/2000/svg"><defs
   id="defs1" /><sodipodi:namedview
   id="namedview1"
   pagecolor="#ffffff"
   bordercolor="#000000"
   borderopacity="0.25"
   inkscape:showpageshadow="2"
   inkscape:pageopacity="0.0"
   inkscape:pagecheckerboard="0"
   inkscape:deskcolor="#d1d1d1"
   inkscape:zoom="16"
   inkscape:cx="9.3750001"
   inkscape:cy="15.03125"
   inkscape:window-width="1920"
   inkscape:window-height="1009"
   inkscape:window-x="-8"
   inkscape:window-y="-8"
   inkscape:window-maximized="1"
   inkscape:current-layer="Capa_1" />
            <g
   id="g1">
               <path
   id="path1"
   d="m 103.01313,0 c -2.813,0.006 -5.108085,2.2900893 -5.108085,5.1080893 V 271.64393 L 34.245482,246.48659 c -2.134,-0.837 -4.557154,-0.13059 -5.938154,1.68141 -0.685,0.925 -1.021618,2.02314 -1.021618,3.08614 -0.005,1.087 0.337902,2.16614 1.042902,3.08614 l 96.138498,125.06305 c 0.967,1.261 2.4709,2.00067 4.0439,2.00067 1.587,-0.004 3.09419,-0.73967 4.06519,-2.00067 l 96.11721,-125.04177 c 1.4,-1.818 1.43248,-4.35456 0.0426,-6.19356 -1.374,-1.822 -3.82544,-2.48412 -5.95944,-1.66012 l -63.65956,25.13605 V 5.0868056 c 0,-2.812 -2.2758,-5.0808056 -5.0868,-5.0868056 z" />
            </g>
         <g
   id="g3"
   transform="matrix(0.44430114,0,0,0.44430114,167.02226,20.54133)">
	<g
   id="g2">
		<path
   d="M 233.004,0 C 104.224,0 0,104.212 0,233.004 0,361.785 104.212,466.008 233.004,466.008 361.786,466.008 466.008,361.796 466.008,233.004 466.008,104.222 361.796,0 233.004,0 Z m 11.48,242.659 -63.512,75.511 c -5.333,6.34 -14.797,7.156 -21.135,1.824 -6.34,-5.333 -7.157,-14.795 -1.824,-21.135 l 59.991,-71.325 V 58.028 c 0,-8.284 6.716,-15 15,-15 8.284,0 15,6.716 15,15 v 174.976 0 c 0,3.532 -1.247,6.952 -3.52,9.655 z"
   id="path1-8" />
	</g>
</g><g
   id="g4"
   transform="matrix(10.897257,0,0,10.897257,-2190.3487,-2462.7801)">
</g><g
   id="g5"
   transform="matrix(10.897257,0,0,10.897257,-2190.3487,-2462.7801)">
</g><g
   id="g6"
   transform="matrix(10.897257,0,0,10.897257,-2190.3487,-2462.7801)">
</g><g
   id="g7"
   transform="matrix(10.897257,0,0,10.897257,-2190.3487,-2462.7801)">
</g><g
   id="g8"
   transform="matrix(10.897257,0,0,10.897257,-2190.3487,-2462.7801)">
</g><g
   id="g9"
   transform="matrix(10.897257,0,0,10.897257,-2190.3487,-2462.7801)">
</g><g
   id="g10"
   transform="matrix(10.897257,0,0,10.897257,-2190.3487,-2462.7801)">
</g><g
   id="g11"
   transform="matrix(10.897257,0,0,10.897257,-2190.3487,-2462.7801)">
</g><g
   id="g12"
   transform="matrix(10.897257,0,0,10.897257,-2190.3487,-2462.7801)">
</g><g
   id="g13"
   transform="matrix(10.897257,0,0,10.897257,-2190.3487,-2462.7801)">
</g><g
   id="g14"
   transform="matrix(10.897257,0,0,10.897257,-2190.3487,-2462.7801)">
</g><g
   id="g15"
   transform="matrix(10.897257,0,0,10.897257,-2190.3487,-2462.7801)">
</g><g
   id="g16"
   transform="matrix(10.897257,0,0,10.897257,-2190.3487,-2462.7801)">
</g><g
   id="g17"
   transform="matrix(10.897257,0,0,10.897257,-2190.3487,-2462.7801)">
</g><g
   id="g18"
   transform="matrix(10.897257,0,0,10.897257,-2190.3487,-2462.7801)">
</g></svg>
